<?xml version="1.0" encoding="utf-8"?>

<svg version="1.1" id="Layer_1" xmlns="http://www.w3.org/2000/svg" xmlns:xlink="http://www.w3.org/1999/xlink" x="0px" y="0px"
	 viewBox="0 0 400 109" style="enable-background:new 0 0 400 109;" xml:space="preserve">
<style type="text/css">
	.st0{fill:#FFFFFF;}
	.st1{enable-background:new    ;}
</style>
<path class="st0" d="M223.6,72.3c-3.7,0.4-7.2,1.4-10.6,3c-0.9,0.4-1.8,0.8-2.6,1.3c-0.5,0.2-1,0.5-1.5,0.7
	c-6.4,3.2-13.5,9-13.9,16.7c0-0.8,0-1.5-0.1-2.3c-0.1-2.3-0.2-4.5-0.3-6.8c0-0.6-0.8-0.6-0.9,0c0,0.3,0,0.6-0.1,0.9c0,0,0,0.1,0,0.2
	c0,0.3,0,0.5-0.1,0.8c0-0.3,0-0.6-0.1-0.9c-0.1-0.5-0.8-0.6-0.9-0.1c-0.1,0.1-0.1,0.2-0.1,0.3c0,0.4,0,0.8,0,1.2
	c-0.3,3.6-0.4,7.1-0.3,10.7c0,0.2,0.1,0.3,0.2,0.3c0,0.2,0.2,0.4,0.4,0.5c-0.2,0.4,0.2,0.9,0.6,0.6c2.4-1.7,4.8-3.5,6.8-5.6
	c1.4-1.1,2.7-2.2,3.9-3.3c0.4-0.3-0.2-0.9-0.5-0.5c-0.1,0.1-0.3,0.2-0.4,0.3c0.1-0.2-0.1-0.5-0.3-0.5c0.2-0.2,0.4-0.4,0.6-0.6
	c0.4-0.4-0.2-1-0.6-0.6c-2.2,1.9-4.4,3.8-6.6,5.8c0.1-0.2,0.1-0.3,0.2-0.5c1.4-3,3.8-5.5,6.2-7.8c2.7-2.5,5.7-4.6,8.9-6.3
	c5.6-2.9,11.8-4.5,18.1-4.7c0.7,0,1.4,0.1,2.1,0.1c0.1,0,0.2,0,0.3-0.1c0.2,0,0.4,0,0.6,0c0.5,0,0.6-0.8,0.1-0.8
	c-0.3-0.1-0.6-0.1-0.9-0.2C230.1,71.5,226.1,72,223.6,72.3z M193.5,88c0,0.3,0,0.6-0.1,0.9c0-0.5,0-0.9,0-1.4c0,0,0.1,0,0.1-0.1
	C193.5,87.7,193.5,87.9,193.5,88z M196.6,91.1c-0.2,0.4-0.4,0.7-0.5,1.1c0.1-0.4,0.2-0.8,0.3-1.2C196.4,91.1,196.5,91.1,196.6,91.1z
	 M197.3,88.8c1.1-2.2,2.8-4.2,4.7-5.9C200.2,84.7,198.6,86.7,197.3,88.8z M210.6,79.1c-3.3,1.8-6.4,4-9.2,6.7
	c-0.3,0.3-0.5,0.5-0.8,0.8c2.3-2.8,5.2-5.2,8.4-7c2.6-1.5,5.3-2.6,8.1-3.3C214.9,77,212.7,78,210.6,79.1z M209.1,78.4
	c0.6-0.4,1.2-0.7,1.8-1c1.9-0.8,3.8-1.5,5.7-2C214,76.1,211.5,77.1,209.1,78.4z M230.4,73.8c-0.2,0-0.3,0-0.5-0.1
	c0-0.2-0.2-0.4-0.4-0.4c-0.8,0-1.6,0.1-2.4,0.1c-2.4-0.1-4.8,0-7.2,0.3c0.5-0.1,0.9-0.2,1.4-0.3c1.7-0.3,3.4-0.5,5.1-0.6
	C227.7,72.9,229.4,73,230.4,73.8z"/>
<g class="st1">
	<path class="st0" d="M270.7,60.3l-0.9-0.8l-0.9-0.8c-0.5-0.4-0.9-0.7-1.3-1c-0.5-0.2-1-0.4-1.7-0.5c-2-0.5-4.3-0.7-6.9-0.7
		c-2,0-3.9,0.2-5.6,0.5c-1.2,0.5-1.8,1.4-1.9,2.5c-0.1,0.7,0.1,1.3,0.5,1.9c0.3,0.1,0.8,0.3,1.5,0.6c0.8,0.4,1.3,0.6,1.6,0.8
		c0.8,0.6,1.8,1.3,2.9,2.3c0.3,0.1,0.5,0.3,0.7,0.5c0.9,0.6,2,1.5,3.3,2.7c1.3,1.2,2.5,2.5,3.6,3.9c0.8,0.9,1.4,1.8,1.9,2.6
		c1.8,1.8,2.9,3.5,3.3,4.9c0.2,0.8,0.1,1.4-0.3,1.9c-0.3,0.4-0.7,0.6-1.3,0.9c-0.4,0.9-1.1,1.6-2.3,2.1c-1.2,0.5-2.8,0.7-4.6,0.5
		c-1.7-0.1-3.4-0.4-5-1.1c-1.6-0.6-2.8-1.4-3.5-2.3c-0.1-0.1-0.2-0.2-0.3-0.3l-1.2-0.9c-0.1-0.1-0.2-0.2-0.5-0.3l-1.7-1.4
		c-0.4-0.3-0.7-0.8-1.1-1.4c-0.4-0.6-0.7-1.3-0.9-2.1c0-0.2,0-0.3,0.2-0.4c0.2-0.1,0.3,0,0.4,0.2c0.4,1.4,1.3,2.7,2.7,3.8l-0.5-1
		c-0.1-0.2-0.1-0.3,0.1-0.4s0.3-0.1,0.4,0.2c0.4,0.7,0.7,1.1,0.8,1.3c-0.2-0.6-0.6-1.8-1.1-3.7c0-0.2,0-0.3,0.2-0.4s0.3,0,0.4,0.2
		c0.7,2.4,1.3,4.1,1.8,5.1c0.7,0.3,1.8,0.6,3.3,1c2.2,0.5,4.3,0.9,6.3,1.1c1,0.1,2,0.1,2.9,0.1c0.4-0.2,0.8-0.4,1.2-0.6
		c0.6-0.4,1-0.7,1.1-1.1c0.2-0.3,0.3-0.7,0.3-1.1c-0.2-0.8-0.5-1.6-1-2.5c-0.6-1.2-1.5-2.5-2.5-3.9c-1.4-1.2-3.5-2.8-6.2-4.7l-7-5
		c-1.1-0.8-1.9-1.4-2.4-1.9c-0.7-0.7-1-1.2-1.1-1.6c0-0.4,0-0.7,0.2-1v-0.2c0.1-0.5,0.6-0.9,1.3-1.3c0.4-0.2,0.8-0.4,1.4-0.6
		c1.7-0.8,3.7-1.3,6.1-1.5c2.7-0.3,5.3-0.2,7.7,0.4c2.4,0.6,4.3,1.7,5.5,3.4c0.1,0.1,0.1,0.2,0.1,0.3c0.2,0.2,0.4,0.4,0.6,0.5
		c0.2,0.1,0.2,0.3,0.1,0.5C271.1,60.4,270.9,60.4,270.7,60.3z M250.9,60.7c-0.1-0.4-0.2-0.9-0.1-1.5c0.1-0.8,0.5-1.5,1-2
		c-0.1,0-0.3,0.1-0.5,0.1l-0.3,0.1c-0.8,0.4-1.3,0.8-1.7,1.2l-0.3,0.3c0,0.3,0.2,0.6,0.5,0.9C250,60.1,250.4,60.4,250.9,60.7z
		 M251.7,61.8l-0.6-0.3c-0.3-0.1-0.6-0.4-1.1-0.7c0.5,0.5,1.3,1.2,2.3,1.9l7,4.9l3.3,2.5c-1.6-1.7-3.2-3.3-4.9-4.8L255,64
		C253.5,63.2,252.4,62.5,251.7,61.8z M254.7,63.2c0,0-0.1-0.1-0.3-0.2L254.7,63.2z M254.5,81.1c1.6,1.1,3,1.8,4.3,2.1
		c1.6,0.4,3.4,0.2,5.3-0.3c-0.4,0-0.7-0.1-1.1-0.1c-2.1-0.2-4.2-0.5-6.3-1.1L254.5,81.1z M260,84c0.8,0.1,1.5,0.2,2.3,0.3
		c1.7,0.1,3.2-0.1,4.3-0.5c0.8-0.3,1.3-0.7,1.7-1.2c-0.6,0.1-1.4,0.2-2.2,0.3l-0.3,0.1C263.7,83.7,261.7,84.1,260,84z M268.8,81.1
		c-0.2,0.3-0.6,0.6-1.1,0.9c0.3,0,0.6-0.1,0.9-0.2l0.1-0.1v-0.1C268.7,81.4,268.8,81.2,268.8,81.1z M269.2,79.3
		c0.2,0.8,0.2,1.5,0.2,2.1c0.2-0.1,0.4-0.3,0.5-0.5c0.3-0.4,0.4-0.8,0.2-1.4c-0.2-0.8-0.7-1.7-1.3-2.6
		C269.1,77.9,269.3,78.6,269.2,79.3z"/>
	<path class="st0" d="M292.8,79.8c0-0.5-0.2-1-0.5-1.7c-0.1-0.2-0.1-0.3,0.1-0.4c0.2-0.1,0.3-0.1,0.4,0.2c0.4,0.6,0.6,1.2,0.6,1.8
		l0.4-0.1c2.2-1.3,3.6-2.7,4.2-4.2c0.1-0.2,0.2-0.3,0.5-0.2c0.2,0.1,0.3,0.2,0.2,0.5c-0.4,1-1.2,2-2.1,2.8c0.1,0,0.3,0,0.4,0.1
		c0.1,0.1,0.1,0.3-0.1,0.5c-0.3,0.2-0.6,0.5-1,0.9c-0.4,0.4-0.7,0.6-0.8,0.7l-0.6,0.5c-0.3,0.2-0.5,0.4-0.7,0.5l-0.9,0.5
		c-0.4,0.2-0.8,0.4-1.3,0.7c-5,2.6-9.2,2.3-12.6-0.9c-2.3-2-3.7-4.8-4.2-8.4c-0.8-2.7-0.9-5.6-0.4-8.6c0.5-3,1.8-5.4,3.7-7.4
		c2-1.9,4.2-3.1,6.7-3.5c3.2-0.5,6,0.2,8.4,2.1c1.1,0.6,1.9,1.2,2.5,1.9c0.3,0.4,0.6,0.9,0.8,1.5c0.6,0.7,1.1,1.4,1.5,2.3
		c0.1,0.2,0.1,0.3-0.1,0.4c-0.2,0.1-0.4,0.1-0.5-0.1c-0.1-0.2-0.2-0.4-0.3-0.6c0.1,0.3,0.2,0.6,0.3,0.8c0.1,0.2,0.1,0.3-0.1,0.4
		c-0.2,0.1-0.3,0.1-0.4-0.2l-0.1-0.1c0,0.3,0.1,0.6,0.1,0.9c0,0.2-0.1,0.3-0.3,0.3c-0.2,0-0.3-0.1-0.3-0.3c-0.2-2.7-1.4-4.7-3.5-5.9
		c-1.9-1.1-4.1-1.4-6.8-0.9c-2.6,0.4-4.8,1.5-6.7,3.2c-1.6,1.8-2.6,3.9-3.1,6.4c-0.4,1.8-0.4,3.6-0.1,5.3c0.5,1.7,1.3,3.4,2.3,4.9
		l0.7,0.9c1.4,1.4,3.2,2.2,5.5,2.6C287,80.6,289.8,80.5,292.8,79.8z M276.1,62.7c1.2-3,3-5.2,5.3-6.7c-1.6,0.8-3,2.1-4.1,3.6
		c-1.1,1.6-1.9,3.4-2.3,5.5l-0.1,0.9C275.1,64.9,275.5,63.8,276.1,62.7z M275.3,71.9l-0.1-0.4c0,0.7,0.1,1.3,0.2,2
		c0.7,2.4,1.9,4.3,3.5,5.9c1,0.9,2,1.6,3.2,2.1c-1.3-0.9-2.5-2-3.6-3.4C276.8,76.5,275.8,74.4,275.3,71.9z M289.3,83.2
		c-1,0.1-2,0.1-3-0.1c-0.5-0.1-1-0.2-1.5-0.4c-2.4-0.2-4.6-1.2-6.4-2.9c-0.7-0.6-1.3-1.3-1.8-2.1c0.7,1.5,1.6,2.8,2.7,3.8
		C282.1,84,285.4,84.6,289.3,83.2z M278.7,59.5c2.9-3.3,6.5-4.5,11-3.8l0.7,0.1c-3.2-1.1-6-0.8-8.6,0.7c-1.2,0.8-2.3,1.8-3.3,3.1
		L278.7,59.5z M281.1,79.8c1.2,1.1,2.5,1.8,3.9,2.3c2.2,0.2,4.5-0.2,6.9-1.4c-2.8,0.5-5.3,0.5-7.6,0.1
		C283.2,80.6,282.1,80.3,281.1,79.8z M292.4,81.1c-1.4,0.7-2.8,1.2-4.2,1.5c1.3,0,2.4-0.2,3.3-0.7C291.8,81.6,292.1,81.4,292.4,81.1
		z M293,81.4c0.6-0.4,1.7-1.2,3.3-2.7c-0.7,0.5-1.7,1.2-2.9,1.9l-0.1,0.1C293.3,80.9,293.2,81.2,293,81.4z"/>
	<path class="st0" d="M304.1,55.3c-0.6,0.4-1,1.4-1.3,2.9c-0.2,1.3-0.2,2.9-0.1,4.9c0,1.1,0.1,2.2,0.3,3.4c0.1,1.2,0.3,2.3,0.4,3.3
		c0.1,1,0.2,1.7,0.3,2l0.1,0.7c0-0.8,0.1-1.7,0.2-2.7c-0.1-0.8-0.2-1.6-0.2-2.4c0-0.4-0.1-1.3-0.1-2.7c-0.2-0.1-0.2-0.2-0.2-0.4
		c0-0.1,0.1-0.3,0.2-0.5c-0.1-2.3-0.1-3.8-0.1-4.5c0-0.7,0.2-1.4,0.6-2.1c0.2-0.4,0.4-0.6,0.6-0.7c0.2-0.1,0.3-0.2,0.5-0.1
		c0.2,0,0.3,0.1,0.5,0.3c0,0,0.1,0.1,0.1,0.3c0,0.1,0.1,0.2,0.1,0.3c0,0.2,0,0.4-0.1,0.8v0.4c0.9-1.1,2.1-1.9,3.4-2.5
		c1.8-1.3,3.4-1.6,5-1c2.4-0.4,4.6,0.5,6.4,2.7c0.1,0.2,0.1,0.3-0.1,0.5c-0.2,0.1-0.3,0.1-0.5-0.1l-0.1-0.2
		c-0.1,0.2-0.3,0.2-0.5,0.1c-1-0.8-1.9-1.3-2.7-1.7c0,0,0,0.1-0.1,0.1c0.4,0.1,0.7,0.3,1,0.5c0.6,0.4,1.3,1,2.1,1.8
		c0.2,0.2,0.3,0.3,0.3,0.5c0.1,0,0.1,0.1,0.1,0.1c0,0.1,0.1,0.2,0.1,0.2c0,0.2-0.1,0.3-0.3,0.3c0,0-0.1,0-0.2,0h-0.1
		c0,0-0.1-0.1-0.3-0.1c-0.2-0.1-0.5-0.3-0.9-0.6c-1.1-0.7-1.9-1.4-2.5-2c-0.1,0.1-0.2,0.1-0.3,0c-0.1,0-0.2-0.1-0.3-0.1
		c-0.1,0-0.3,0-0.5-0.1c-1.7,0.7-3.6,1.6-5.5,2.7c-1,0.6-1.9,1.2-2.7,1.9l-0.7,0.9c-0.1,0.2-0.3,0.2-0.5,0.1l-0.2,0.3l-0.6,6
		l-0.1,1.2l0.9,6.4c0.5,3.6,0.8,6.6,0.8,8.8c0,0.2-0.1,0.3-0.3,0.3c-0.1,0-0.2,0-0.3-0.1c-0.1,0.7-0.3,1.2-0.6,1.6
		c-0.1,0.1-0.2,0.2-0.3,0.2c-0.2,0-0.3-0.1-0.3-0.3c0-0.1-0.1-0.2-0.1-0.3c0-0.1,0-0.2-0.1-0.4v-0.3c-0.1-0.8-0.2-1.5-0.3-2.3h-0.1
		c-0.1,0-0.2,0-0.2-0.1c-0.1,0-0.1,0-0.1-0.1l-0.1-0.1v-0.1c-0.2-1-0.3-3-0.1-5.9c0-0.4,0.1-0.7,0.1-1.1c-0.2-1.6-0.3-3-0.5-4.1
		c0-0.3-0.1-1-0.3-2s-0.3-2.2-0.4-3.4c-0.1-1.2-0.2-2.3-0.3-3.4c-0.1-2,0-3.7,0.1-5.1c0.3-1.6,0.8-2.8,1.5-3.3
		c0.2-0.1,0.3-0.1,0.5,0.1C304.3,55,304.2,55.2,304.1,55.3z M304.1,60.8c0.1-0.5,0.4-1,0.8-1.5c0-0.5,0.1-1,0.1-1.3
		c0-0.3,0.1-0.6,0.1-0.7v-0.1v-0.1c-0.1,0.1-0.3,0.3-0.4,0.5c-0.3,0.6-0.5,1.2-0.5,1.7C304.1,59.7,304.1,60.2,304.1,60.8z
		 M304.3,63.7v0.1c0,0.1-0.1,0.2-0.1,0.2c0,0.7,0,1.3,0.1,1.9l0.3-2.5C304.4,63.6,304.4,63.6,304.3,63.7z M304.3,73.2
		C304.3,73.1,304.3,73.1,304.3,73.2V73V73.2z M304.9,85.7c0.1-0.4,0.2-0.9,0.2-1.5c0.1-0.9,0.1-2,0-3.5c0-0.6-0.2-1.8-0.4-3.6
		c0-0.5-0.1-1-0.1-1.3c0,0.3,0,1.3,0,3.1c0,1.8,0.1,2.9,0.1,3.2C304.6,83.4,304.7,84.6,304.9,85.7z M308.5,58.5
		c-0.8,0.8-1.7,1.6-2.5,2.5c-0.1,0.2-0.3,0.2-0.5,0.1l-0.1-0.1l-0.1,0.2l-0.1,0.4l0.8-0.7C306.9,60,307.7,59.2,308.5,58.5z
		 M306.3,58.8l-0.4,0.4c-0.1,0.1-0.2,0.3-0.3,0.4v0.1C305.8,59.4,306,59.1,306.3,58.8z M310.6,56.3c-0.5,0-0.9,0.2-1.2,0.3l-1,0.7
		c-0.6,0.6-1.2,1.3-1.8,2.1C307.9,58.1,309.2,57,310.6,56.3z M313.6,56.7c-1.1,0.1-2.2,0.5-3.4,1.3l-1.5,1.2l0.3-0.1
		C310.5,58.1,312,57.3,313.6,56.7z M310.9,56.8c0.7-0.4,1.3-0.6,1.9-0.7h-0.5C312,56.2,311.5,56.5,310.9,56.8z M315.5,55.7
		c0,0,0.1,0.1,0.1,0.2l0.2-0.1C315.8,55.8,315.6,55.8,315.5,55.7z"/>
	<path class="st0" d="M348.2,72.8c-0.2,0.6-0.4,1.2-0.7,1.9c-0.6,1.4-1.5,2.7-2.7,4s-2.4,2.3-3.9,3.1c-2.8,1.6-5.5,2-8,1.3h-0.2
		c-3.2-0.7-5.5-3.1-6.7-7.2c-0.1-0.3-0.2-0.5-0.2-0.7c-0.8-1.4-1.5-2.9-1.9-4.5c-1.1-3.8-0.9-7.2,0.5-10.4c1.7-3.5,4.8-5.9,9.2-7.1
		l0.3-0.1c0.9-0.3,1.8-0.4,2.8-0.5c3.5-0.4,6.3,0.2,8.4,1.8l0.4,0.2c2.2,1.3,3.7,3,4.6,5.2c0.8,2.2,1,4.3,0.6,6.5
		C350.4,68.3,349.5,70.5,348.2,72.8z M327.6,57.1c-1,1-1.8,2.1-2.4,3.4c-1.4,3-1.6,6.3-0.5,9.8c0.3,0.8,0.6,1.7,0.9,2.5
		c-0.2-1.6-0.3-3.3-0.1-5C325,63.3,325.7,59.7,327.6,57.1z M334.3,53.7c-2.4,0.7-4.1,1.7-5.4,3c-1.8,1.9-2.7,4.5-2.9,7.8l0.1-0.7
		c1.2-4.3,3.2-7.3,6.1-8.8c1.3-0.7,2.8-1,4.3-0.9c1.2-0.2,2.7-0.3,4.3-0.3h1.6C339.8,53,337.1,53,334.3,53.7z M327.8,75.3
		c0.5,1.1,1.1,2,1.9,2.9c2.8,2.3,5.7,2.8,8.7,1.5c0.5-0.2,1.1-0.6,1.8-1c0.7-0.5,1.2-0.8,1.5-1.1c0.3-0.3,0.9-0.8,1.8-1.7l1.3-1.3
		c0.1-0.1,0.3-0.1,0.5,0.1c0,0,0.1,0.1,0.1,0.3c0.7-1.4,1.2-2.9,1.6-4.5c0.8-3.8,0.5-6.9-1-9.5c-1.7-2.9-4.6-4.4-8.6-4.4
		c-1.2,0-2,0-2.4,0.1c-0.5,0-1,0.2-1.6,0.4s-1.3,0.6-2,1.1c-0.1,0.1-0.3,0.1-0.4,0c-1.5,1.6-2.6,3.3-3.3,5.4c-0.8,2-1.1,4.1-1.1,6.2
		c0.2,0.9,0.4,2,0.7,3.2C327.3,73.8,327.5,74.6,327.8,75.3z M327,75.3c-0.2-0.4-0.4-0.9-0.6-1.4c0.1,0.3,0.2,0.6,0.2,0.9L327,75.3z
		 M327.7,77.2l-0.4-0.5c0.4,1,0.9,1.8,1.4,2.6C328.3,78.7,328,78,327.7,77.2z M332.5,55.7c-1.8,1-3.3,2.7-4.5,5.1
		c1.1-1.9,2.4-3.5,4.1-4.9C332.2,55.9,332.3,55.8,332.5,55.7z M329,78.5c0.8,1.6,1.9,2.7,3.1,3.3c0.4,0.2,0.8,0.3,1.2,0.5
		c3.3,0.6,6.3-0.4,8.9-3c-1,0.7-2.1,1.3-3.2,1.7c-3.5,1.4-6.6,0.8-9.1-1.6c-0.2-0.2-0.4-0.5-0.6-0.7L329,78.5z M332.3,56.7
		c1-0.5,2.7-0.7,5-0.7c2.2,0,4.1,0.4,5.7,1.3c-2.2-1.5-4.3-2.3-6.3-2.4c-1.8,0.4-3.2,0.9-4.2,1.7L332.3,56.7z M338.7,80.4
		L338.7,80.4c2-0.8,3.9-2,5.7-3.9c0.3-0.4,0.6-0.9,0.8-1.4l-1.1,1c-0.5,0.6-1,1-1.3,1.3l-1.2,1.1c-0.5,0.4-1,0.8-1.5,1.1
		S339.1,80.2,338.7,80.4z M347.1,58.1c-0.1-0.2-0.6-0.7-1.3-1.5c-0.5-0.6-0.9-1-1.3-1.3c-0.4-0.3-0.8-0.5-1.2-0.7
		c-0.5-0.1-1-0.1-1.7-0.1c-0.1,0-0.2,0-0.2-0.1h-0.6c-0.8,0-1.4,0-2.1,0.1c1.7,0.5,3.4,1.4,5.3,2.7c0.2,0.1,0.2,0.3,0.1,0.5
		c0,0.1-0.1,0.1-0.3,0.1c1.1,0.8,1.9,1.7,2.6,2.9c0.8,1.6,1.3,3.3,1.5,5.1c0-0.6,0-1,0-1.2c0-3-0.2-5.1-0.5-6.3l-0.1-0.1
		C347.3,58.2,347.2,58.2,347.1,58.1z M346.6,75c-0.6,0.7-1.2,1.4-1.8,2c-0.7,1.1-1.5,2.1-2.3,2.9C344.3,78.5,345.7,76.9,346.6,75z
		 M348,67.1c0,1.1-0.2,2.3-0.5,3.5c-0.3,1.3-0.7,2.5-1.3,3.7l0.5-0.7c0.3-0.4,0.5-0.7,0.7-1.1c0.2-0.6,0.3-1.3,0.4-2
		c0.1-0.7,0.1-1.3,0.1-1.7C348,68.5,348,67.9,348,67.1z M348.6,62c0,0.5,0.1,1.4,0.1,2.5c0,3.5,0,5.5,0,6.1c0.8-1.7,1.3-3.4,1.6-5.1
		c0.3-1.6,0.2-3.3-0.3-4.9c-0.5-1.6-1.3-3-2.6-4.2c0.1,0.2,0.2,0.4,0.3,0.7c0.1,0.3,0.2,0.6,0.3,0.9c0.5,1.2,0.8,2.4,1,3.6
		c0,0.2,0,0.4-0.3,0.4H348.6z"/>
	<path class="st0" d="M355.8,40.9c-0.1,0.8-0.1,2.1,0,3.8c0.1,1.7,0.1,3,0.2,3.8l0.3,3.7c0.1,1.7,0.2,3,0.3,3.8l0.1-0.9l0.5-4
		c0.3-1.7,0.4-3,0.5-3.9c0.1-1.5,0.2-2.8,0.2-4v-0.1v-0.7v-0.1v-0.1v-0.1V42V42l0.1-0.1c0.1-0.1,0.3-0.1,0.4,0l0.1,0.1V42v0.1v0.1
		v0.1v0.2v0.7v0.1c0,2.6-0.1,6.6-0.2,11.9c-0.2,5.4-0.2,9.5-0.2,12.3c0,0.9,0.1,2.6,0.2,4.9c0.1,2.3,0.1,4.4,0.1,6.2
		c0,1.7-0.2,3.4-0.5,4.9c0,0.2-0.2,0.3-0.4,0.3c-0.2,0-0.3-0.2-0.3-0.4c0.3-1.5,0.5-3.1,0.5-4.8c0-1.8,0-3.8-0.1-6.1
		c-0.1-2.3-0.2-3.9-0.2-4.9c0-2.6,0.1-7.5,0.3-14.8c-0.1,1-0.2,1.8-0.3,2.5c-0.2,2.2-0.3,4.3-0.5,6.3c0,0.9-0.1,7-0.3,18.2
		c0,0.1,0.1,0.3,0.1,0.4c0,0.7,0,1.2-0.1,1.6v0.1v1.7c0,0.2-0.1,0.3-0.2,0.3c0,0-0.1,0.1-0.1,0.1v0.1c0,0.1-0.1,0.2-0.2,0.2
		c-0.1,0-0.2,0-0.3,0l-0.1-0.1l-0.1-0.2v-0.1c-0.2-4.8-0.1-10.2,0.1-16.2c0-1.6-0.2-3.7-0.4-6.5c-0.2-2.8-0.3-5.1-0.4-7
		c-0.1-1.9-0.1-4-0.1-6.5c0-2.5,0.1-4.7,0.3-6.7v-0.1c0-0.3,0.1-0.6,0.1-0.9c0-0.2,0.1-0.3,0.3-0.3c0.2,0,0.3,0.1,0.3,0.3
		C355.9,40.2,355.9,40.5,355.8,40.9z M356.2,61.4c0-0.5-0.1-1-0.1-1.5c0-1.6-0.2-4.2-0.5-7.8c0,1.6,0.2,4.9,0.5,9.6L356.2,61.4z"/>
	<path class="st0" d="M363.3,40.9c-0.1,0.8-0.1,2.1,0,3.8c0.1,1.7,0.1,3,0.2,3.8l0.3,3.7c0.1,1.7,0.2,3,0.3,3.8l0.1-0.9l0.5-4
		c0.3-1.7,0.4-3,0.5-3.9c0.1-1.5,0.2-2.8,0.2-4v-0.1v-0.7v-0.1v-0.1v-0.1V42V42l0.1-0.1c0.1-0.1,0.3-0.1,0.4,0L366,42V42v0.1v0.1
		v0.1v0.2v0.7v0.1c0,2.6-0.1,6.6-0.2,11.9c-0.2,5.4-0.2,9.5-0.2,12.3c0,0.9,0.1,2.6,0.2,4.9c0.1,2.3,0.1,4.4,0.1,6.2
		c0,1.7-0.2,3.4-0.5,4.9c0,0.2-0.2,0.3-0.4,0.3c-0.2,0-0.3-0.2-0.3-0.4c0.3-1.5,0.5-3.1,0.5-4.8c0-1.8,0-3.8-0.1-6.1
		c-0.1-2.3-0.2-3.9-0.2-4.9c0-2.6,0.1-7.5,0.3-14.8c-0.1,1-0.2,1.8-0.3,2.5c-0.2,2.2-0.3,4.3-0.5,6.3c0,0.9-0.1,7-0.3,18.2
		c0,0.1,0.1,0.3,0.1,0.4c0,0.7,0,1.2-0.1,1.6v0.1v1.7c0,0.2-0.1,0.3-0.2,0.3c0,0-0.1,0.1-0.1,0.1v0.1c0,0.1-0.1,0.2-0.2,0.2
		c-0.1,0-0.2,0-0.3,0l-0.1-0.1l-0.1-0.2v-0.1c-0.2-4.8-0.1-10.2,0.1-16.2c0-1.6-0.2-3.7-0.4-6.5c-0.2-2.8-0.3-5.1-0.4-7
		c-0.1-1.9-0.1-4-0.1-6.5c0-2.5,0.1-4.7,0.3-6.7v-0.1c0-0.3,0.1-0.6,0.1-0.9c0-0.2,0.1-0.3,0.3-0.3c0.2,0,0.3,0.1,0.3,0.3
		C363.4,40.2,363.4,40.5,363.3,40.9z M363.7,61.4c0-0.5-0.1-1-0.1-1.5c0-1.6-0.2-4.2-0.5-7.8c0,1.6,0.2,4.9,0.5,9.6L363.7,61.4z"/>
</g>
</svg>
