<?xml version="1.0" encoding="utf-8"?>
<!-- Generator: Adobe Illustrator 21.0.2, SVG Export Plug-In . SVG Version: 6.00 Build 0)  -->
<svg version="1.1" id="Layer_1" xmlns="http://www.w3.org/2000/svg" xmlns:xlink="http://www.w3.org/1999/xlink" x="0px" y="0px"
	 viewBox="0 0 478 101.5" style="enable-background:new 0 0 478 101.5;" xml:space="preserve">
<style type="text/css">
	.st0{fill:#222426;}
	.st1{fill:#BCBBBB;}
	.st2{fill:#F48024;}
</style>
<path class="st0" d="M108.5,62.2l-5.4-0.5c-4.2-0.3-5.9-2-5.9-4.9c0-3.4,2.6-5.6,7.5-5.6c3.5,0,6.6,0.8,9,2.7l3.2-3.2
	c-3.1-2.5-7.3-3.6-12.1-3.6c-7.1,0-12.3,3.7-12.3,9.9c0,5.6,3.5,8.5,10.1,9.1l5.6,0.5c3.9,0.3,5.6,1.9,5.6,4.9c0,4-3.4,5.9-9,5.9
	c-4.2,0-7.8-1.1-10.4-3.9l-3.3,3.3c3.7,3.5,8.2,4.9,13.8,4.9c8.2,0,13.7-3.7,13.7-10.2C118.5,64.9,114.4,62.8,108.5,62.2z M150.6,47
	c-5.4,0-8.8,1-11.8,4.9l3.2,3.2c1.9-2.8,4.2-3.9,8.5-3.9c6.1,0,8.6,2.5,8.6,7.4v3.3H149c-7.5,0-11.6,3.9-11.6,9.7
	c0,2.7,0.9,5.2,2.5,6.8c2.2,2.2,4.9,3.1,9.5,3.1c4.5,0,6.9-0.9,9.7-3.6v3.3h4.9V58.2C164,51,159.6,47,150.6,47z M159.1,69.2
	c0,2.8-0.6,4.8-1.7,5.8c-2.2,2-4.6,2.3-7.5,2.3c-5.3,0-7.7-1.8-7.7-5.8c0-3.9,2.5-5.9,7.5-5.9h9.4V69.2z M183.3,51.4
	c3.2,0,5.2,0.9,7.7,3.7l3.3-3.2c-3.4-3.7-6.3-4.9-11-4.9c-8.5,0-14.8,5.8-14.8,17.2s6.5,17.2,14.8,17.2c4.6,0,7.6-1.2,11.1-5
	l-3.4-3.2c-2.5,2.8-4.5,3.9-7.7,3.9c-3.3,0-6-1.2-7.8-3.9c-1.6-2.2-2.2-4.8-2.2-9.1c0-4.2,0.6-6.8,2.2-9.1
	C177.3,52.7,180,51.4,183.3,51.4z M225.4,47.5h-6.1L204,62.3V32.5h-4.9v48.6h4.9V68.9l6-6l11.2,18.2h6.1l-13.9-21.6L225.4,47.5z
	 M248.5,45.7c-5.2,0-8.6,2-10.8,4.3c-3.2,3.3-4,7.3-4,13.6c0,6.3,0.8,10.3,4,13.6c2.2,2.3,5.7,4.3,10.8,4.3c5.2,0,8.7-2,10.9-4.3
	c3.2-3.3,4-7.3,4-13.6c0-6.3-0.8-10.3-4-13.6C257.2,47.7,253.6,45.7,248.5,45.7z M252.6,72.1c-1,1-2.4,1.6-4.1,1.6
	c-1.7,0-3.1-0.6-4.1-1.6c-1.8-1.8-2-4.9-2-8.5s0.2-6.7,2-8.5c1-1,2.3-1.6,4.1-1.6c1.7,0,3.1,0.6,4.1,1.6c1.8,1.8,2,4.9,2,8.5
	S254.4,70.3,252.6,72.1z M286.6,46.1l-7,21.6l-7.1-21.6h-9.2l12.9,35h6.8l12.8-35H286.6z M310.7,45.7c-9.1,0-15.3,6.5-15.3,17.9
	c0,14.2,7.9,17.9,16.2,17.9c6.3,0,9.7-1.9,13.3-5.6l-5.3-5.2c-2.3,2.3-4.1,3.3-7.9,3.3c-4.9,0-7.7-3.3-7.7-7.8h21.9v-3.9
	C325.9,52.8,320.3,45.7,310.7,45.7z M304,60.3c0.1-1.6,0.2-2.5,0.8-3.7c0.9-2,2.8-3.6,5.9-3.6c2.9,0,4.9,1.6,5.9,3.6
	c0.6,1.2,0.8,2.3,0.8,3.7H304z M338.8,49.4V46h-8.5v35.1h8.7V60.1c0-4.4,2.9-6.5,5.7-6.5c2.2,0,3.3,0.7,4.6,2l6.6-6.6
	c-2.4-2.4-4.9-3.3-8.3-3.3C343.8,45.7,340.5,47.5,338.8,49.4z M358.5,42.5v38.6h8.7V53.5h6.5v-6.7h-6.5v-3.9c0-2,1-3.2,3.1-3.2h3.4
	v-7.4h-5C361.7,32.4,358.5,37.5,358.5,42.5z M409.7,45.7c-5.2,0-8.6,2-10.8,4.3c-3.2,3.3-4,7.3-4,13.6c0,6.3,0.8,10.3,4,13.6
	c2.2,2.3,5.7,4.3,10.8,4.3c5.2,0,8.7-2,10.9-4.3c3.2-3.3,4-7.3,4-13.6c0-6.3-0.8-10.3-4-13.6C418.5,47.7,414.8,45.7,409.7,45.7z
	 M413.8,72.1c-1,1-2.4,1.6-4.1,1.6c-1.7,0-3.1-0.6-4.1-1.6c-1.8-1.8-2-4.9-2-8.5s0.2-6.7,2-8.5c1-1,2.3-1.6,4.1-1.6
	c1.7,0,3.1,0.6,4.1,1.6c1.8,1.8,2,4.9,2,8.5S415.6,70.3,413.8,72.1z M465.8,46.1l-5.7,21.6L453,46.1h-6.3l-7.1,21.6l-5.7-21.6h-9.3
	l10.8,35h7.1l7.4-22l7.4,22h7.1l10.7-35H465.8z M386.6,70.6V32.4h-8.7V71c0,5,3.1,10,10.2,10h5v-7.4h-3.4
	C387.5,73.6,386.6,72.6,386.6,70.6z M132,52.8l4.5-4.5h-9.3V37.2h-4.9v34.9c0,5,2.8,9.1,8.6,9.1h3.5v-4.2h-2.6
	c-3.2,0-4.5-1.8-4.5-4.9V52.8H132z"/>
<polygon class="st1" points="67.6,89.4 67.6,64.5 76,64.5 76,97.7 1.3,97.7 1.3,64.5 9.6,64.5 9.6,89.4 "/>
<path class="st2" d="M18.7,62.2l40.7,8.5l1.7-8.2L20.4,54L18.7,62.2z M24.1,42.7l37.6,17.6l3.5-7.5L27.6,35.1L24.1,42.7z M34.5,24.3
	l32,26.5l5.3-6.3l-32-26.5L34.5,24.3z M55.1,4.7l-6.7,5l24.8,33.3l6.7-5L55.1,4.7z M17.8,81h41.5v-8.3H17.8V81z"/>
</svg>
